<?xml version="1.0" encoding="UTF-8" standalone="no"?>
<!DOCTYPE svg PUBLIC "-//W3C//DTD SVG 1.1//EN"
 "http://www.w3.org/Graphics/SVG/1.1/DTD/svg11.dtd">
<!-- Generated by graphviz version 12.2.0 (20241103.1931)
 -->
<!-- Pages: 1 -->
<svg width="293pt" height="929pt"
 viewBox="0.00 0.00 292.77 929.00" xmlns="http://www.w3.org/2000/svg" xmlns:xlink="http://www.w3.org/1999/xlink">
<g id="graph0" class="graph" transform="scale(1 1) rotate(0) translate(4 925)">
<polygon fill="white" stroke="none" points="-4,4 -4,-925 288.77,-925 288.77,4 -4,4"/>
<!-- AGCCG -->
<g id="node1" class="node">
<title>AGCCG</title>
<ellipse fill="none" stroke="black" cx="188.09" cy="-903" rx="43.16" ry="18"/>
<text text-anchor="middle" x="188.09" y="-897.95" font-family="Times New Roman,serif" font-size="14.00">AGCCG</text>
</g>
<!-- GCCGA -->
<g id="node2" class="node">
<title>GCCGA</title>
<ellipse fill="none" stroke="black" cx="188.09" cy="-814.5" rx="43.16" ry="18"/>
<text text-anchor="middle" x="188.09" y="-809.45" font-family="Times New Roman,serif" font-size="14.00">GCCGA</text>
</g>
<!-- AGCCG&#45;&gt;GCCGA -->
<g id="edge1" class="edge">
<title>AGCCG&#45;&gt;GCCGA</title>
<path fill="none" stroke="black" d="M188.09,-884.91C188.09,-873.26 188.09,-857.55 188.09,-844.02"/>
<polygon fill="black" stroke="black" points="191.59,-844.36 188.09,-834.36 184.59,-844.36 191.59,-844.36"/>
<text text-anchor="middle" x="191.47" y="-853.7" font-family="Times New Roman,serif" font-size="14.00">2</text>
</g>
<!-- CCGAT -->
<g id="node3" class="node">
<title>CCGAT</title>
<ellipse fill="none" stroke="black" cx="188.09" cy="-726" rx="41.12" ry="18"/>
<text text-anchor="middle" x="188.09" y="-720.95" font-family="Times New Roman,serif" font-size="14.00">CCGAT</text>
</g>
<!-- GCCGA&#45;&gt;CCGAT -->
<g id="edge2" class="edge">
<title>GCCGA&#45;&gt;CCGAT</title>
<path fill="none" stroke="black" d="M188.09,-796.41C188.09,-784.76 188.09,-769.05 188.09,-755.52"/>
<polygon fill="black" stroke="black" points="191.59,-755.86 188.09,-745.86 184.59,-755.86 191.59,-755.86"/>
<text text-anchor="middle" x="191.47" y="-765.2" font-family="Times New Roman,serif" font-size="14.00">2</text>
</g>
<!-- CGATC -->
<g id="node4" class="node">
<title>CGATC</title>
<ellipse fill="none" stroke="black" cx="188.09" cy="-637.5" rx="41.12" ry="18"/>
<text text-anchor="middle" x="188.09" y="-632.45" font-family="Times New Roman,serif" font-size="14.00">CGATC</text>
</g>
<!-- CCGAT&#45;&gt;CGATC -->
<g id="edge3" class="edge">
<title>CCGAT&#45;&gt;CGATC</title>
<path fill="none" stroke="black" d="M188.09,-707.91C188.09,-696.26 188.09,-680.55 188.09,-667.02"/>
<polygon fill="black" stroke="black" points="191.59,-667.36 188.09,-657.36 184.59,-667.36 191.59,-667.36"/>
<text text-anchor="middle" x="191.47" y="-676.7" font-family="Times New Roman,serif" font-size="14.00">2</text>
</g>
<!-- GATCA -->
<g id="node5" class="node">
<title>GATCA</title>
<ellipse fill="none" stroke="black" cx="188.09" cy="-549" rx="41.63" ry="18"/>
<text text-anchor="middle" x="188.09" y="-543.95" font-family="Times New Roman,serif" font-size="14.00">GATCA</text>
</g>
<!-- CGATC&#45;&gt;GATCA -->
<g id="edge4" class="edge">
<title>CGATC&#45;&gt;GATCA</title>
<path fill="none" stroke="black" d="M188.09,-619.41C188.09,-607.76 188.09,-592.05 188.09,-578.52"/>
<polygon fill="black" stroke="black" points="191.59,-578.86 188.09,-568.86 184.59,-578.86 191.59,-578.86"/>
<text text-anchor="middle" x="191.47" y="-588.2" font-family="Times New Roman,serif" font-size="14.00">2</text>
</g>
<!-- ATCAT -->
<g id="node6" class="node">
<title>ATCAT</title>
<ellipse fill="none" stroke="black" cx="139.09" cy="-460.5" rx="39.58" ry="18"/>
<text text-anchor="middle" x="139.09" y="-455.45" font-family="Times New Roman,serif" font-size="14.00">ATCAT</text>
</g>
<!-- GATCA&#45;&gt;ATCAT -->
<g id="edge5" class="edge">
<title>GATCA&#45;&gt;ATCAT</title>
<path fill="none" stroke="black" d="M178.64,-531.32C171.71,-519.08 162.14,-502.19 154.15,-488.09"/>
<polygon fill="black" stroke="black" points="157.4,-486.71 149.42,-479.74 151.31,-490.17 157.4,-486.71"/>
<text text-anchor="middle" x="171.36" y="-499.7" font-family="Times New Roman,serif" font-size="14.00">3</text>
</g>
<!-- ATCAA -->
<g id="node7" class="node">
<title>ATCAA</title>
<ellipse fill="none" stroke="black" cx="239.09" cy="-460.5" rx="41.63" ry="18"/>
<text text-anchor="middle" x="239.09" y="-455.45" font-family="Times New Roman,serif" font-size="14.00">ATCAA</text>
</g>
<!-- GATCA&#45;&gt;ATCAA -->
<g id="edge6" class="edge">
<title>GATCA&#45;&gt;ATCAA</title>
<path fill="none" stroke="black" d="M197.92,-531.32C205.15,-519.08 215.1,-502.19 223.41,-488.09"/>
<polygon fill="black" stroke="black" points="226.28,-490.12 228.35,-479.73 220.25,-486.56 226.28,-490.12"/>
<text text-anchor="middle" x="221.53" y="-499.7" font-family="Times New Roman,serif" font-size="14.00">1</text>
</g>
<!-- TCATC -->
<g id="node8" class="node">
<title>TCATC</title>
<ellipse fill="none" stroke="black" cx="40.09" cy="-372" rx="40.09" ry="18"/>
<text text-anchor="middle" x="40.09" y="-366.95" font-family="Times New Roman,serif" font-size="14.00">TCATC</text>
</g>
<!-- ATCAT&#45;&gt;TCATC -->
<g id="edge7" class="edge">
<title>ATCAT&#45;&gt;TCATC</title>
<path fill="none" stroke="black" d="M121.39,-444.04C106.05,-430.63 83.63,-411.04 66.22,-395.83"/>
<polygon fill="black" stroke="black" points="68.61,-393.27 58.78,-389.33 64,-398.54 68.61,-393.27"/>
<text text-anchor="middle" x="101.83" y="-411.2" font-family="Times New Roman,serif" font-size="14.00">1</text>
</g>
<!-- TCATG -->
<g id="node9" class="node">
<title>TCATG</title>
<ellipse fill="none" stroke="black" cx="139.09" cy="-372" rx="40.6" ry="18"/>
<text text-anchor="middle" x="139.09" y="-366.95" font-family="Times New Roman,serif" font-size="14.00">TCATG</text>
</g>
<!-- ATCAT&#45;&gt;TCATG -->
<g id="edge8" class="edge">
<title>ATCAT&#45;&gt;TCATG</title>
<path fill="none" stroke="black" d="M139.09,-442.41C139.09,-430.76 139.09,-415.05 139.09,-401.52"/>
<polygon fill="black" stroke="black" points="142.59,-401.86 139.09,-391.86 135.59,-401.86 142.59,-401.86"/>
<text text-anchor="middle" x="142.47" y="-411.2" font-family="Times New Roman,serif" font-size="14.00">1</text>
</g>
<!-- TCAAG -->
<g id="node14" class="node">
<title>TCAAG</title>
<ellipse fill="none" stroke="black" cx="240.09" cy="-372" rx="42.65" ry="18"/>
<text text-anchor="middle" x="240.09" y="-366.95" font-family="Times New Roman,serif" font-size="14.00">TCAAG</text>
</g>
<!-- ATCAA&#45;&gt;TCAAG -->
<g id="edge13" class="edge">
<title>ATCAA&#45;&gt;TCAAG</title>
<path fill="none" stroke="black" d="M239.29,-442.41C239.42,-430.76 239.61,-415.05 239.76,-401.52"/>
<polygon fill="black" stroke="black" points="243.26,-401.9 239.87,-391.86 236.26,-401.82 243.26,-401.9"/>
<text text-anchor="middle" x="243.06" y="-411.2" font-family="Times New Roman,serif" font-size="14.00">1</text>
</g>
<!-- CATGG -->
<g id="node10" class="node">
<title>CATGG</title>
<ellipse fill="none" stroke="black" cx="138.09" cy="-283.5" rx="41.63" ry="18"/>
<text text-anchor="middle" x="138.09" y="-278.45" font-family="Times New Roman,serif" font-size="14.00">CATGG</text>
</g>
<!-- TCATG&#45;&gt;CATGG -->
<g id="edge9" class="edge">
<title>TCATG&#45;&gt;CATGG</title>
<path fill="none" stroke="black" d="M138.89,-353.91C138.76,-342.26 138.58,-326.55 138.42,-313.02"/>
<polygon fill="black" stroke="black" points="141.93,-313.32 138.31,-303.36 134.93,-313.4 141.93,-313.32"/>
<text text-anchor="middle" x="142.06" y="-322.7" font-family="Times New Roman,serif" font-size="14.00">1</text>
</g>
<!-- ATGGT -->
<g id="node11" class="node">
<title>ATGGT</title>
<ellipse fill="none" stroke="black" cx="138.09" cy="-195" rx="41.12" ry="18"/>
<text text-anchor="middle" x="138.09" y="-189.95" font-family="Times New Roman,serif" font-size="14.00">ATGGT</text>
</g>
<!-- CATGG&#45;&gt;ATGGT -->
<g id="edge10" class="edge">
<title>CATGG&#45;&gt;ATGGT</title>
<path fill="none" stroke="black" d="M138.09,-265.41C138.09,-253.76 138.09,-238.05 138.09,-224.52"/>
<polygon fill="black" stroke="black" points="141.59,-224.86 138.09,-214.86 134.59,-224.86 141.59,-224.86"/>
<text text-anchor="middle" x="141.47" y="-234.2" font-family="Times New Roman,serif" font-size="14.00">1</text>
</g>
<!-- TGGTC -->
<g id="node12" class="node">
<title>TGGTC</title>
<ellipse fill="none" stroke="black" cx="138.09" cy="-106.5" rx="41.63" ry="18"/>
<text text-anchor="middle" x="138.09" y="-101.45" font-family="Times New Roman,serif" font-size="14.00">TGGTC</text>
</g>
<!-- ATGGT&#45;&gt;TGGTC -->
<g id="edge11" class="edge">
<title>ATGGT&#45;&gt;TGGTC</title>
<path fill="none" stroke="black" d="M138.09,-176.91C138.09,-165.26 138.09,-149.55 138.09,-136.02"/>
<polygon fill="black" stroke="black" points="141.59,-136.36 138.09,-126.36 134.59,-136.36 141.59,-136.36"/>
<text text-anchor="middle" x="141.47" y="-145.7" font-family="Times New Roman,serif" font-size="14.00">1</text>
</g>
<!-- GGTCA -->
<g id="node13" class="node">
<title>GGTCA</title>
<ellipse fill="none" stroke="black" cx="189.09" cy="-18" rx="42.65" ry="18"/>
<text text-anchor="middle" x="189.09" y="-12.95" font-family="Times New Roman,serif" font-size="14.00">GGTCA</text>
</g>
<!-- TGGTC&#45;&gt;GGTCA -->
<g id="edge12" class="edge">
<title>TGGTC&#45;&gt;GGTCA</title>
<path fill="none" stroke="black" d="M147.92,-88.82C155.15,-76.58 165.1,-59.69 173.41,-45.59"/>
<polygon fill="black" stroke="black" points="176.28,-47.62 178.35,-37.23 170.25,-44.06 176.28,-47.62"/>
<text text-anchor="middle" x="171.53" y="-57.2" font-family="Times New Roman,serif" font-size="14.00">1</text>
</g>
<!-- CAAGG -->
<g id="node15" class="node">
<title>CAAGG</title>
<ellipse fill="none" stroke="black" cx="241.09" cy="-283.5" rx="43.67" ry="18"/>
<text text-anchor="middle" x="241.09" y="-278.45" font-family="Times New Roman,serif" font-size="14.00">CAAGG</text>
</g>
<!-- TCAAG&#45;&gt;CAAGG -->
<g id="edge14" class="edge">
<title>TCAAG&#45;&gt;CAAGG</title>
<path fill="none" stroke="black" d="M240.29,-353.91C240.42,-342.26 240.61,-326.55 240.76,-313.02"/>
<polygon fill="black" stroke="black" points="244.26,-313.4 240.87,-303.36 237.26,-313.32 244.26,-313.4"/>
<text text-anchor="middle" x="244.06" y="-322.7" font-family="Times New Roman,serif" font-size="14.00">1</text>
</g>
<!-- AAGGT -->
<g id="node16" class="node">
<title>AAGGT</title>
<ellipse fill="none" stroke="black" cx="240.09" cy="-195" rx="43.16" ry="18"/>
<text text-anchor="middle" x="240.09" y="-189.95" font-family="Times New Roman,serif" font-size="14.00">AAGGT</text>
</g>
<!-- CAAGG&#45;&gt;AAGGT -->
<g id="edge15" class="edge">
<title>CAAGG&#45;&gt;AAGGT</title>
<path fill="none" stroke="black" d="M240.89,-265.41C240.76,-253.76 240.58,-238.05 240.42,-224.52"/>
<polygon fill="black" stroke="black" points="243.93,-224.82 240.31,-214.86 236.93,-224.9 243.93,-224.82"/>
<text text-anchor="middle" x="244.06" y="-234.2" font-family="Times New Roman,serif" font-size="14.00">1</text>
</g>
<!-- AGGTC -->
<g id="node17" class="node">
<title>AGGTC</title>
<ellipse fill="none" stroke="black" cx="240.09" cy="-106.5" rx="42.65" ry="18"/>
<text text-anchor="middle" x="240.09" y="-101.45" font-family="Times New Roman,serif" font-size="14.00">AGGTC</text>
</g>
<!-- AAGGT&#45;&gt;AGGTC -->
<g id="edge16" class="edge">
<title>AAGGT&#45;&gt;AGGTC</title>
<path fill="none" stroke="black" d="M240.09,-176.91C240.09,-165.26 240.09,-149.55 240.09,-136.02"/>
<polygon fill="black" stroke="black" points="243.59,-136.36 240.09,-126.36 236.59,-136.36 243.59,-136.36"/>
<text text-anchor="middle" x="243.47" y="-145.7" font-family="Times New Roman,serif" font-size="14.00">1</text>
</g>
<!-- AGGTC&#45;&gt;GGTCA -->
<g id="edge17" class="edge">
<title>AGGTC&#45;&gt;GGTCA</title>
<path fill="none" stroke="black" d="M230.26,-88.82C223.04,-76.58 213.08,-59.69 204.77,-45.59"/>
<polygon fill="black" stroke="black" points="207.93,-44.06 199.84,-37.23 201.9,-47.62 207.93,-44.06"/>
<text text-anchor="middle" x="222.53" y="-57.2" font-family="Times New Roman,serif" font-size="14.00">1</text>
</g>
</g>
</svg>
